<svg width="44" height="44" viewBox="0 0 44 44" fill="none" xmlns="http://www.w3.org/2000/svg">
<path d="M12.0494 35.072H2.2998V39.0033H12.0494V35.072Z" fill="white" fill-opacity="0.15"/>
<path d="M12.0494 23.8906H2.2998V28.3533H12.0494V23.8906Z" fill="white" fill-opacity="0.15"/>
<path d="M41.7003 35.072H31.9507V39.0033H41.7003V35.072Z" fill="white" fill-opacity="0.15"/>
<path d="M39.1367 21.3126V19.8245C37.0612 19.5218 35.462 17.73 35.462 15.5719V0H31.2945V4.9317C31.2945 10.0568 27.1249 14.2263 21.9999 14.2263C16.8749 14.2263 12.7053 10.0567 12.7053 4.9317V0H8.53772V15.5718C8.53772 17.7299 6.9386 19.5217 4.86304 19.8244V21.3125H14.6272V30.9315H4.86312V32.4942H14.6273V41.5817H4.86312V44H39.1367V41.5816H29.3726V32.4941H39.1367V30.9315H29.3726V21.3126H39.1367Z" fill="white" fill-opacity="0.15"/>
<path d="M41.7003 23.8906H31.9507V28.3533H41.7003V23.8906Z" fill="white" fill-opacity="0.15"/>
</svg>
