<svg width="44" height="44" viewBox="0 0 44 44" fill="none" xmlns="http://www.w3.org/2000/svg">
<path d="M43.8604 31.3538L41.2688 19.6914C40.6109 16.7328 38.0346 14.6667 35.0043 14.6667H34.644C34.2339 13.2603 32.9314 10.3507 29.0396 8.63964L29.2921 7.63864C29.4076 7.17939 29.1552 6.70768 28.7094 6.55007C26.7418 5.85363 24.4841 5.5 22 5.5C19.5131 5.5 17.2511 5.85449 15.2762 6.55454C14.8287 6.71301 14.5762 7.18747 14.6944 7.64663L14.951 8.64299C11.067 10.355 9.76628 13.2614 9.35619 14.6667H8.99568C5.96552 14.6667 3.38912 16.7328 2.73118 19.6914L0.140508 31.3528C0.0474375 31.7691 0 32.1979 0 32.6276C0 35.8655 2.6345 38.5 5.87237 38.5H38.1275C41.3655 38.5 44 35.8655 44 32.6276C44 32.1979 43.9526 31.7691 43.8604 31.3538ZM7.3333 36.6667H5.87237C3.64512 36.6667 1.8333 34.8549 1.8333 32.6276C1.8333 32.3322 1.86553 32.0377 1.92998 31.7512L4.5216 20.0887C4.86363 18.5482 5.93905 17.3542 7.33339 16.8161V36.6667H7.3333ZM27.304 8.02355L26.8573 9.79335C25.4366 9.37707 23.8074 9.1667 22 9.1667C20.1917 9.1667 18.5616 9.37621 17.1401 9.79155L16.6853 8.02622C19.857 7.10686 24.1404 7.106 27.304 8.02355ZM11 36.6667H9.1667V16.5H11V36.6667ZM31.1667 36.6667H12.8333V16.5H31.1666V36.6667H31.1667ZM11.3004 14.6667C11.7416 13.5279 12.8503 11.7141 15.4229 10.4757L15.6102 11.2032C15.6755 11.4574 15.8465 11.6706 16.0793 11.7905C16.312 11.9104 16.5841 11.9248 16.8294 11.8298C18.2518 11.2793 19.9912 11 22 11C24.0088 11 25.749 11.2802 27.1715 11.8334C27.278 11.8755 27.3908 11.8961 27.5036 11.8961C27.6487 11.8961 27.7928 11.862 27.9244 11.794C28.1571 11.6731 28.3281 11.4583 28.3925 11.204L28.5771 10.4727C31.1614 11.714 32.2654 13.5268 32.7033 14.6666H11.3004V14.6667ZM34.8333 36.6667H33V16.5H34.8333V36.6667ZM38.1276 36.6667H36.6667V16.8161C38.061 17.3542 39.1364 18.5482 39.4785 20.0887L42.071 31.7521C42.1346 32.0377 42.1668 32.3322 42.1668 32.6276C42.1667 34.8548 40.3548 36.6667 38.1276 36.6667Z" fill="white" fill-opacity="0.15"/>
<path d="M18.3334 33.0016H25.6668C27.689 33.0016 29.3335 31.3572 29.3335 29.3349V24.7516C29.3335 24.2449 28.9235 23.8349 28.4168 23.8349H15.5834C15.0768 23.8349 14.6667 24.2449 14.6667 24.7516V29.3349C14.6668 31.3572 16.3112 33.0016 18.3334 33.0016ZM16.5001 25.6683H27.5002V29.335C27.5002 30.3456 26.6775 31.1683 25.6668 31.1683H18.3335C17.3229 31.1683 16.5002 30.3456 16.5002 29.335V25.6683H16.5001Z" fill="white" fill-opacity="0.15"/>
</svg>
