<svg width="44" height="28" viewBox="0 0 44 28" fill="none" xmlns="http://www.w3.org/2000/svg">
<path d="M16.5322 24.4345L19.05 19.8562C19.6586 18.7493 19.3957 17.36 18.425 16.5521C16.707 15.1182 14.9223 14.5596 12.0597 14.5596C10.65 14.5596 9.17338 14.6567 7.67085 14.8479C5.64788 15.1055 4.42997 17.2017 5.19086 19.0932L7.06275 23.8204C7.42309 24.7305 8.28857 25.3186 9.26748 25.3186H15.0396C15.662 25.3186 16.2343 24.9793 16.5322 24.4345ZM8.26115 23.3458L6.40061 18.6472L6.38772 18.6149C5.93921 17.4999 6.65223 16.2769 7.83353 16.1267C9.28226 15.9423 10.7041 15.8488 12.0596 15.8488C14.6516 15.8488 16.1011 16.2918 17.5989 17.5418C17.5993 17.542 17.5996 17.5423 17.5999 17.5425C18.0975 17.9562 18.2322 18.6681 17.9204 19.2351L15.4019 23.8148C15.3294 23.9472 15.1906 24.0295 15.0395 24.0295H9.26731C8.82061 24.0295 8.42555 23.761 8.26115 23.3458Z" fill="white" fill-opacity="0.15"/>
<path d="M28.9606 25.3186H34.7326C35.7116 25.3186 36.577 24.7305 36.9375 23.8203L38.7973 19.1234L38.8083 19.096C39.5716 17.1982 38.3499 15.1052 36.3294 14.8479C34.8267 14.6567 33.3501 14.5596 31.9405 14.5596C29.0779 14.5596 27.2932 15.1182 25.5751 16.552C24.6044 17.36 24.3415 18.7494 24.9501 19.8562L27.4672 24.4333C27.766 24.9793 28.3382 25.3186 28.9606 25.3186ZM26.4001 17.5424C26.4005 17.5422 26.4007 17.5419 26.4011 17.5417C27.899 16.2917 29.3485 15.8487 31.9405 15.8487C33.2959 15.8487 34.7177 15.9422 36.1666 16.1266C37.3504 16.2772 38.0597 17.5027 37.6129 18.6136L35.739 23.3456C35.5745 23.761 35.1794 24.0293 34.7326 24.0293H28.9606C28.8095 24.0293 28.6706 23.947 28.5974 23.8132L26.0796 19.2349C25.7678 18.668 25.9027 17.9562 26.4001 17.5424Z" fill="white" fill-opacity="0.15"/>
<path d="M42.7396 13.459C42.5755 13.4118 42.3824 13.3579 42.1652 13.2997L38.8598 8.55476C38.6564 8.26266 38.2548 8.19098 37.9626 8.39431C37.6706 8.59781 37.5987 8.99948 37.8021 9.29158L40.2762 12.8432C39.5252 12.6805 38.6517 12.5128 37.6914 12.366L33.4863 5.06975C32.6646 3.64431 30.9305 2.97193 29.3631 3.47097C28.737 3.67026 28.0796 3.28294 27.9497 2.63979C27.8116 1.95727 28.3338 1.32031 29.0291 1.32031C31.0455 1.32031 32.9374 2.30807 34.0899 3.96253L36.0828 6.82338C36.2862 7.11539 36.6879 7.18707 36.98 6.98382C37.2721 6.78033 37.3439 6.37857 37.1405 6.08656L35.1476 3.22571C33.7541 1.22552 31.4669 0.03125 29.0291 0.03125C27.5176 0.03125 26.3871 1.41587 26.6862 2.89528C26.9681 4.28901 28.3997 5.13025 29.754 4.69927C30.7483 4.38302 31.8482 4.80918 32.3694 5.71342L36.0815 12.1541C34.7905 12.0082 33.3929 11.9128 31.9405 11.9128C28.4335 11.9128 26.0981 12.6681 23.8792 14.5201C22.7551 15.4582 21.245 15.4582 20.1209 14.5201C17.9021 12.6681 15.5666 11.9128 12.0596 11.9128C10.6071 11.9128 9.20946 12.0082 7.91859 12.1541L11.6306 5.71342C12.1516 4.80927 13.2517 4.38302 14.2459 4.69927C15.5976 5.12973 17.0314 4.29133 17.3138 2.89528C17.6134 1.41364 16.4802 0.03125 14.9709 0.03125C12.5332 0.03125 10.2459 1.22543 8.8523 3.22571L1.83484 13.2997C1.61768 13.3579 1.42467 13.4118 1.26044 13.459C0.518287 13.6727 0 14.3618 0 15.1349V16.7673C0 17.8599 0.846051 18.2756 1.20725 18.4531C1.94364 18.8143 2.46511 19.3992 2.74225 20.0992L4.60168 24.7948C5.36437 26.7209 7.19586 27.9656 9.26746 27.9656H10.6662C11.0222 27.9656 11.3107 27.6771 11.3107 27.321C11.3107 26.965 11.0222 26.6765 10.6662 26.6765H9.26746C7.72798 26.6765 6.367 25.7516 5.80024 24.3203L3.94082 19.6247C3.55256 18.644 2.81272 17.8031 1.77572 17.2962C1.41057 17.1167 1.28906 17.0151 1.28906 16.7673V15.1349C1.28906 14.9331 1.42389 14.7534 1.61708 14.6977C3.17933 14.248 7.32417 13.2019 12.0596 13.2019C15.2764 13.2019 17.305 13.8489 19.2949 15.5097C20.8877 16.8391 23.1125 16.8391 24.7051 15.5097C26.695 13.8489 28.7236 13.2019 31.9404 13.2019C35.935 13.2019 39.5095 13.9464 41.4679 14.4492C41.4697 14.4496 41.4714 14.4501 41.4732 14.4506C41.834 14.5433 42.1397 14.6277 42.3828 14.6977C42.5759 14.7533 42.7108 14.9331 42.7108 15.1349V16.7673C42.7108 17.0789 42.4933 17.1562 42.1302 17.343C41.1855 17.8273 40.4499 18.6375 40.0589 19.6247L38.1996 24.3204C37.6328 25.7516 36.2718 26.6765 34.7324 26.6765H28.9602C27.8412 26.6765 26.8127 26.0667 26.2757 25.085L24.045 21.0071C23.6303 20.2488 22.866 19.7961 22.0007 19.7961H22.0006C21.1343 19.7961 20.3694 20.2489 19.9545 21.0071L17.7239 25.085C17.1869 26.0667 16.1582 26.6765 15.0393 26.6765H13.6737C13.3177 26.6765 13.0292 26.965 13.0292 27.321C13.0292 27.6771 13.3177 27.9656 13.6737 27.9656H15.0393C16.6296 27.9656 18.0917 27.0989 18.8548 25.7038L21.0855 21.6258C21.2706 21.2874 21.6128 21.0853 22.0005 21.0853C22.3874 21.0853 22.7289 21.2874 22.914 21.6258L25.1447 25.7038C25.9079 27.0989 27.37 27.9656 28.9601 27.9656H34.7323C36.8039 27.9656 38.6354 26.721 39.3981 24.7948L41.2573 20.0992C41.5348 19.3987 42.0567 18.8139 42.7924 18.4531C43.1537 18.2756 43.9997 17.8599 43.9997 16.7673V15.1349C44 14.3617 43.4817 13.6727 42.7396 13.459ZM9.9101 3.96253C11.0627 2.30807 12.9546 1.32031 14.9709 1.32031C15.6673 1.32031 16.1882 1.95848 16.0504 2.63979C15.9876 2.95054 15.8024 3.21024 15.5292 3.37094C15.256 3.53156 14.9391 3.56731 14.637 3.47106C13.0696 2.97202 11.3354 3.64448 10.5138 5.06983L6.30865 12.366C5.3483 12.5128 4.47475 12.6805 3.72383 12.8432L9.9101 3.96253Z" fill="white" fill-opacity="0.15"/>
</svg>
