<svg width="44" height="44" viewBox="0 0 44 44" fill="none" xmlns="http://www.w3.org/2000/svg">
<g clip-path="url(#clip0_3_1239)">
<path d="M5.55264 40.3881C3.80867 40.2548 2.12847 39.6744 0.674143 38.7027C0.296663 39.3319 0.0662129 40.0383 0 40.7691C0 42.7515 1.71993 43.3424 2.75 43.5191C5.27371 43.9505 8.6845 42.7562 9.47729 40.5098C9.5205 40.3881 9.5755 40.2592 9.62421 40.1335C8.75374 40.3591 7.85751 40.4701 6.95829 40.4635C6.48875 40.4625 6.01958 40.4374 5.55264 40.3881Z" fill="white" fill-opacity="0.25"/>
<path d="M3.32267 34.8134C3.31324 34.8236 3.30696 34.8362 3.29674 34.8464C2.59353 35.7374 1.98224 36.575 1.48096 37.3426C2.73041 38.2137 4.19445 38.7262 5.71439 38.8245C8.1996 39.0798 10.0138 38.5298 10.6919 37.8973C13.3758 33.3866 17.0687 29.5593 21.4805 26.7158L16.4425 21.0917C11.7596 25.3592 7.37597 29.9439 3.32267 34.8134ZM7.07131 36.5333C6.63738 36.5333 6.2856 36.1816 6.2856 35.7476C6.2856 35.3137 6.63738 34.9619 7.07131 34.9619C7.50525 34.9619 7.85703 35.3137 7.85703 35.7476C7.85703 36.1816 7.50525 36.5333 7.07131 36.5333ZM17.2856 26.319C17.2856 26.753 16.9338 27.1048 16.4999 27.1048C16.0659 27.1048 15.7142 26.753 15.7142 26.319C15.7142 25.8851 16.0659 25.5333 16.4999 25.5333C16.9338 25.5333 17.2856 25.8851 17.2856 26.319Z" fill="white" fill-opacity="0.25"/>
<path d="M30.6734 16.5335C35.4944 13.1395 38.9399 8.13077 40.3857 2.41498C33.5753 6.69898 27.1558 11.5749 21.2017 16.986L24.7114 20.9044L30.6734 16.5335Z" fill="white" fill-opacity="0.25"/>
<path d="M42.5434 1.0686L42.2205 1.2666C41.6838 4.5281 39.608 11.9342 31.6023 17.8012L25.7653 22.0778L26.8213 23.2564C28.3235 22.1564 30.1998 20.7853 32.535 19.0685C39.5538 13.9221 42.8168 7.1406 43.7259 1.86139C43.7726 1.55985 43.6404 1.25858 43.387 1.08866C43.1335 0.918751 42.8046 0.91093 42.5434 1.0686Z" fill="white" fill-opacity="0.25"/>
<path d="M19.9472 17.9396C19.8082 17.7841 19.6131 17.6903 19.4048 17.6788C19.1966 17.6673 18.9923 17.7391 18.837 17.8783L17.6663 18.9265C17.3438 19.2161 17.3167 19.7121 17.6058 20.0351L23.3871 26.4897C23.6767 26.8128 24.1734 26.8399 24.4965 26.5502L25.6664 25.5021C25.8219 25.3631 25.9157 25.168 25.9272 24.9597C25.9387 24.7515 25.8669 24.5472 25.7277 24.3919L19.9472 17.9396Z" fill="white" fill-opacity="0.25"/>
</g>
<defs>
<clipPath id="clip0_3_1239">
<rect width="44" height="44" fill="white"/>
</clipPath>
</defs>
</svg>
