<svg width="42" height="40" viewBox="0 0 42 40" fill="none" xmlns="http://www.w3.org/2000/svg">
<path d="M40.7243 0.141985C37.8634 -0.0115851 35.0152 0.744407 32.4862 2.32824L31.6485 2.85288C29.7751 4.02619 27.704 4.48931 25.6602 4.19282L25.4016 4.15157L27.1043 0.493813H14.4231L16.1704 4.24627L15.9537 4.25925C13.2718 4.40414 10.5962 3.69301 8.21797 2.20363L7.37982 1.67975C5.46573 0.480493 3.35708 -0.0389992 1.25385 0.163985C1.14049 0.17594 1.03653 0.232435 0.964825 0.321043C0.893124 0.409651 0.859558 0.523113 0.871512 0.63647C0.883467 0.749826 0.939962 0.85379 1.02857 0.925492C1.11718 0.997194 1.23064 1.03076 1.344 1.01881C3.25473 0.836274 5.17526 1.31297 6.92349 2.4079L7.76121 2.93212C10.0759 4.38171 12.6581 5.13788 15.2722 5.13779C15.5143 5.13779 15.7567 5.13129 15.9994 5.11828L16.561 5.08554L17.5454 7.19694H23.9821L25.0235 4.96394L25.5354 5.04171C25.977 5.10612 26.4227 5.1386 26.869 5.13891C28.6737 5.13891 30.4612 4.61031 32.105 3.58086L32.9428 3.05664C35.3209 1.56734 37.9959 0.856641 40.6786 1.0005C40.7924 1.00662 40.9039 0.967282 40.9887 0.89114C41.0735 0.814999 41.1246 0.70829 41.1307 0.594489C41.1368 0.480688 41.0975 0.369118 41.0214 0.284321C40.9452 0.199525 40.8385 0.148449 40.7247 0.142329L40.7243 0.141985Z" fill="white" fill-opacity="0.15"/>
<path d="M17.6287 8.05469L15.2207 21.2415L25.6562 17.694L23.8982 8.05469H17.6287ZM18.7105 12.9947L17.7174 19.102C17.7011 19.2027 17.6496 19.2943 17.5719 19.3604C17.4943 19.4265 17.3957 19.4629 17.2938 19.463C17.2705 19.463 17.2473 19.4611 17.2243 19.4574C17.1686 19.4483 17.1153 19.4284 17.0673 19.3987C17.0193 19.369 16.9776 19.3301 16.9446 19.2843C16.9117 19.2385 16.888 19.1867 16.8751 19.1318C16.8622 19.0768 16.8602 19.0199 16.8692 18.9642L17.8623 12.857C17.8709 12.8009 17.8905 12.7471 17.9201 12.6986C17.9496 12.6502 17.9884 12.6081 18.0343 12.5748C18.0802 12.5414 18.1323 12.5175 18.1875 12.5043C18.2427 12.4912 18.2999 12.4891 18.3559 12.4982C18.4119 12.5073 18.4655 12.5275 18.5137 12.5574C18.5619 12.5873 18.6037 12.6265 18.6366 12.6727C18.6696 12.7189 18.6931 12.7711 18.7058 12.8264C18.7184 12.8817 18.72 12.939 18.7105 12.9949V12.9947ZM19.0593 10.849L19.0001 11.2133C18.9838 11.314 18.9322 11.4055 18.8546 11.4716C18.777 11.5377 18.6784 11.5741 18.5765 11.5743C18.5532 11.5743 18.53 11.5724 18.507 11.5687C18.4513 11.5596 18.398 11.5397 18.35 11.51C18.302 11.4803 18.2603 11.4415 18.2273 11.3957C18.1943 11.3499 18.1707 11.2981 18.1577 11.2431C18.1448 11.1882 18.1428 11.1313 18.1519 11.0756L18.2111 10.7113C18.2193 10.6549 18.2387 10.6007 18.2681 10.5519C18.2975 10.5031 18.3363 10.4606 18.3823 10.427C18.4282 10.3933 18.4804 10.3691 18.5358 10.3558C18.5912 10.3425 18.6487 10.3403 18.705 10.3494C18.7612 10.3585 18.8151 10.3788 18.8634 10.4089C18.9118 10.439 18.9537 10.4785 18.9867 10.5249C19.0196 10.5714 19.043 10.624 19.0555 10.6796C19.068 10.7352 19.0692 10.7927 19.0593 10.8488V10.849Z" fill="white" fill-opacity="0.15"/>
<path d="M14.1568 27.0985L13.21 32.2789L20.764 39.8813L28.318 32.2789L26.5964 22.8594L14.1568 27.0985Z" fill="white" fill-opacity="0.15"/>
<path d="M14.333 26.1312L26.4394 22.0055L25.8122 18.5742L15.0435 22.2439L14.333 26.1312Z" fill="white" fill-opacity="0.15"/>
</svg>
