<svg width="44" height="44" viewBox="0 0 44 44" fill="none" xmlns="http://www.w3.org/2000/svg">
<path d="M30.9375 4.8125H28.5312C27.6705 4.8125 26.8482 5.22431 26.3312 5.91319C25.5557 6.94581 24.3224 7.5625 23.0312 7.5625H20.9688C19.6776 7.5625 18.4443 6.94581 17.6688 5.91319C17.1518 5.22431 16.3295 4.8125 15.4688 4.8125H13.0625C12.6837 4.8125 12.375 5.1205 12.375 5.5V38.5C12.375 38.8795 12.6837 39.1875 13.0625 39.1875H30.9375C31.3163 39.1875 31.625 38.8795 31.625 38.5V5.5C31.625 5.1205 31.3163 4.8125 30.9375 4.8125Z" fill="white" fill-opacity="0.15"/>
<path d="M30.9375 2.0625H13.0625C11.1671 2.0625 9.625 3.60456 9.625 5.5V38.5C9.625 40.3954 11.1671 41.9375 13.0625 41.9375H30.9375C32.8329 41.9375 34.375 40.3954 34.375 38.5V5.5C34.375 3.60456 32.8329 2.0625 30.9375 2.0625ZM19.25 3.4375H24.75V4.8125H19.25V3.4375ZM33 38.5C33 39.6371 32.0746 40.5625 30.9375 40.5625H13.0625C11.9254 40.5625 11 39.6371 11 38.5V5.5C11 4.36287 11.9254 3.4375 13.0625 3.4375H15.4688C16.7599 3.4375 17.9932 4.05419 18.7687 5.08681C19.2857 5.77569 20.108 6.1875 20.9688 6.1875H23.0312C23.892 6.1875 24.7143 5.77569 25.2313 5.08681C26.0068 4.05419 27.2401 3.4375 28.5312 3.4375H30.9375C32.0746 3.4375 33 4.36287 33 5.5V38.5Z" fill="white" fill-opacity="0.15"/>
</svg>
