<svg width="45" height="51" viewBox="0 0 45 51" fill="none" xmlns="http://www.w3.org/2000/svg">
<path d="M0.876762 12.7069V9.00586H1.06676V7.69592H2.40269V9.00586C2.40269 9.00586 29.7051 9.26605 35.3437 9.00586C37.2932 9.00586 43.1732 13.5727 39.3159 20.2928C39.3159 20.2928 39.0269 17.8771 37.9344 20.2928C37.9344 20.2928 37.0715 22.0245 40.1491 26.3266C43.1812 30.5704 44.5488 39.1613 44.905 41.7565H45V43.3019H33.5011V41.7565H33.9365C31.5497 39.3878 30.0257 33.5739 29.147 28.3364C28.8184 28.4306 28.4761 28.4911 28.1218 28.4911H24.4782C22.2239 28.4911 19.2413 25.7591 19.2413 23.2065C19.2413 22.103 19.5857 21.0891 20.1557 20.2928H0.876762V16.5918H0V12.7069H0.876762ZM21.8182 23.2065C21.8182 24.8686 23.0136 26.2234 24.4782 26.2234H28.1218C28.3909 26.2234 28.6502 26.1763 28.8937 26.0889C28.6799 24.6757 28.5156 23.4062 28.3989 22.4148C28.0921 23.5609 27.4944 24.7632 26.3208 25.2814C26.2376 25.3172 26.1545 25.3329 26.0714 25.3329C25.7943 25.3329 25.535 25.1445 25.4262 24.8328C25.2876 24.429 25.4638 23.9782 25.82 23.8189C27.0372 23.2851 27.2787 21.2013 27.3242 20.2906H23.8151C22.6692 20.6315 21.8182 21.8091 21.8182 23.2065Z" fill="white" fill-opacity="0.15"/>
</svg>
