<svg width="44" height="32" viewBox="0 0 44 32" fill="none" xmlns="http://www.w3.org/2000/svg">
<path d="M15.1045 20.0915L17.8474 21.0076L19.1494 19.7057L18.2343 16.9635C16.9149 17.6875 15.8293 18.7726 15.1045 20.0915Z" fill="white" fill-opacity="0.15"/>
<path d="M28.8922 20.0914H28.8938C28.1687 18.772 27.0826 17.6867 25.7627 16.9627L24.8474 19.7057L26.1494 21.0076L28.8922 20.0914Z" fill="white" fill-opacity="0.15"/>
<path d="M23.3805 19.1423L24.314 16.3483C22.8065 15.8831 21.1937 15.8831 19.6862 16.3483L20.6196 19.1423H23.3805Z" fill="white" fill-opacity="0.15"/>
<path d="M18.234 16.9627L18.2342 16.9634C18.2346 16.9632 18.235 16.9629 18.2353 16.9627H18.234Z" fill="white" fill-opacity="0.15"/>
<path d="M17.2858 22.4768L14.4902 21.5434C14.0251 23.0504 14.0251 24.6627 14.4902 26.1697L17.2858 25.2362V22.4768Z" fill="white" fill-opacity="0.15"/>
<path d="M20.3185 26.9515C20.3232 26.9515 20.328 26.9515 20.3327 26.9515C20.3598 26.9653 20.386 26.9808 20.4112 26.9978H23.5902C23.6154 26.9807 23.6417 26.9652 23.6688 26.9515C23.6735 26.9515 23.6782 26.9515 23.683 26.9515L25.0972 25.538C25.0972 25.5333 25.0972 25.5278 25.0972 25.523C25.1111 25.4959 25.1265 25.4697 25.1435 25.4445V22.2765C25.1261 22.2482 25.1106 22.2188 25.0972 22.1885C25.0972 22.1838 25.0972 22.1783 25.0972 22.1735L23.683 20.7593C23.6775 20.7593 23.6727 20.7593 23.668 20.7593C23.6408 20.7454 23.6146 20.73 23.5895 20.713H20.412C20.3868 20.7301 20.3605 20.7455 20.3335 20.7593C20.3287 20.7593 20.324 20.7593 20.3185 20.7593L18.9042 22.1735C18.9042 22.1783 18.9042 22.1838 18.9042 22.1885C18.8908 22.2188 18.8754 22.2482 18.8579 22.2765V25.4437C18.875 25.4689 18.8905 25.4952 18.9042 25.5223C18.9042 25.527 18.9042 25.5325 18.9042 25.5372L20.3185 26.9515Z" fill="white" fill-opacity="0.15"/>
<path d="M15.1062 27.6217C15.8308 28.9408 16.9164 30.0261 18.2357 30.7504L19.151 28.0075L17.8491 26.7055L15.1062 27.6217Z" fill="white" fill-opacity="0.15"/>
<path d="M38.4733 11.0604C38.1857 6.89925 30.7717 3.42798 22 3.42798C13.2283 3.42798 5.81428 6.89925 5.52673 11.0604C8.36233 7.88461 14.6928 5.78516 22 5.78516C29.3072 5.78516 35.6377 7.88461 38.4733 11.0604Z" fill="white" fill-opacity="0.15"/>
<path d="M22 0.285156C9.86932 0.285156 0 6.10734 0 13.2636C0 18.2513 5.03482 22.8658 12.65 24.9881C12.4147 23.1663 12.7322 21.3158 13.5615 19.6766C7.59318 18.0612 3.92855 14.9089 3.92855 11.304C3.92855 6.0067 11.8643 1.85652 22 1.85652C32.1357 1.85652 40.0715 6.0067 40.0715 11.304C40.0715 14.9088 36.4069 18.0642 30.4386 19.6765C31.2692 21.3153 31.5881 23.1658 31.354 24.988C38.9652 22.8657 44 18.2512 44 13.2636C44 6.10725 34.1307 0.285156 22 0.285156Z" fill="white" fill-opacity="0.15"/>
<path d="M26.7142 22.4769V25.2363L29.5082 26.1698C29.9734 24.6628 29.9734 23.0505 29.5082 21.5435L26.7142 22.4769Z" fill="white" fill-opacity="0.15"/>
<path d="M24.849 28.0075L25.7643 30.7504C27.0836 30.0261 28.1692 28.9408 28.8938 27.6217L26.1509 26.7055L24.849 28.0075Z" fill="white" fill-opacity="0.15"/>
<path d="M20.6195 28.5709L19.686 31.3649C21.1936 31.83 22.8063 31.83 24.3139 31.3649L23.3804 28.5709H20.6195Z" fill="white" fill-opacity="0.15"/>
</svg>
