<svg width="44" height="44" viewBox="0 0 44 44" fill="none" xmlns="http://www.w3.org/2000/svg">
<path d="M26.8558 3.92855H25.1429C24.709 3.92855 24.3572 3.5768 24.3572 3.14282C24.3572 2.70892 24.709 2.35709 25.1429 2.35709H26.5415L26.07 0H17.93L17.4586 2.35718H22C22.4339 2.35718 22.7858 2.70892 22.7858 3.14291C22.7858 3.5768 22.434 3.92863 22 3.92863H17.1443L16.6729 6.28581H27.3271L26.8558 3.92855Z" fill="white" fill-opacity="0.15"/>
<path d="M22 33C28.0751 33 33 28.0751 33 22C33 15.9249 28.0751 11 22 11C15.9249 11 11 15.9249 11 22C11.0065 28.0724 15.9276 32.9935 22 33ZM22.7857 30.6428C22.7857 31.0767 22.434 31.4285 22 31.4285C21.566 31.4285 21.2143 31.0768 21.2143 30.6428V29.0714C21.2143 28.6375 21.566 28.2856 22 28.2856C22.434 28.2856 22.7857 28.6374 22.7857 29.0714V30.6428ZM29.8806 27.0053C29.6361 27.1458 29.3351 27.1445 29.0918 27.0018L27.731 26.2161C27.3552 25.9991 27.2265 25.5186 27.4435 25.1428C27.6604 24.767 28.1409 24.6383 28.5167 24.8553L29.8775 25.641C30.1226 25.7804 30.2743 26.0404 30.2749 26.3223C30.2755 26.6043 30.125 26.8649 29.8806 27.0053ZM31.4285 22C31.4285 22.4339 31.0768 22.7857 30.6428 22.7857H29.0714C28.6375 22.7857 28.2856 22.434 28.2856 22C28.2856 21.566 28.6374 21.2143 29.0714 21.2143H30.6428C31.0768 21.2143 31.4285 21.5661 31.4285 22ZM27.731 17.7838L29.0918 16.9981C29.335 16.8555 29.6361 16.8541 29.8806 16.9946C30.125 17.135 30.2755 17.3956 30.2749 17.6776C30.2743 17.9596 30.1226 18.2195 29.8775 18.3589L28.5167 19.1446C28.2735 19.2872 27.9725 19.2886 27.728 19.1482C27.4835 19.0077 27.333 18.7471 27.3336 18.4651C27.3342 18.1832 27.4859 17.9232 27.731 17.7838ZM24.8553 15.4833L25.641 14.1225C25.7804 13.8774 26.0404 13.7257 26.3223 13.7251C26.6043 13.7245 26.8649 13.875 27.0053 14.1194C27.1458 14.3639 27.1445 14.6649 27.0018 14.9082L26.2161 16.269C25.9976 16.6416 25.5195 16.768 25.1454 16.5521C24.7714 16.3361 24.6418 15.8587 24.8553 15.4833ZM25.1428 27.4435C25.5186 27.2265 25.9991 27.3553 26.2161 27.731L27.0018 29.0918C27.1444 29.335 27.1458 29.6361 27.0053 29.8806C26.8649 30.125 26.6043 30.2755 26.3223 30.2749C26.0404 30.2743 25.7804 30.1226 25.641 29.8775L24.8553 28.5167C24.6384 28.1409 24.7671 27.6604 25.1428 27.4435ZM21.2143 13.3572C21.2143 12.9233 21.566 12.5715 22 12.5715C22.434 12.5715 22.7857 12.9232 22.7857 13.3572V14.9286C22.7857 15.3625 22.434 15.7144 22 15.7144C21.566 15.7144 21.2143 15.3626 21.2143 14.9286V13.3572ZM21.9262 20.9628L23.016 19.873C23.3242 19.5753 23.8143 19.5796 24.1174 19.8826C24.4205 20.1857 24.4247 20.6757 24.127 20.984L22.5555 22.5555C22.279 22.832 21.8414 22.8631 21.5285 22.6285L18.3857 20.2714C18.0385 20.011 17.9682 19.5186 18.2285 19.1714C18.4889 18.8242 18.9814 18.7539 19.3285 19.0142L21.9262 20.9628ZM16.9193 14.3115C16.9733 14.1101 17.1051 13.9383 17.2857 13.8341C17.4663 13.73 17.6808 13.7019 17.8821 13.756C18.0834 13.8101 18.255 13.9419 18.359 14.1225L19.1447 15.4834C19.2873 15.7266 19.2887 16.0276 19.1482 16.2721C19.0078 16.5166 18.7472 16.6671 18.4652 16.6665C18.1833 16.6659 17.9233 16.5142 17.7839 16.2691L16.9982 14.9083C16.8937 14.7276 16.8653 14.513 16.9193 14.3115ZM16.9982 29.0918L17.7839 27.731C18.0024 27.3584 18.4805 27.232 18.8546 27.4479C19.2286 27.6639 19.3583 28.1413 19.1447 28.5167L18.359 29.8775C18.2196 30.1226 17.9596 30.2743 17.6777 30.2749C17.3957 30.2755 17.1351 30.125 16.9947 29.8806C16.8542 29.6361 16.8555 29.3351 16.9982 29.0918ZM13.834 17.2857C13.9383 17.1051 14.11 16.9733 14.3114 16.9193C14.5129 16.8653 14.7275 16.8937 14.9081 16.9982L16.2689 17.7839C16.514 17.9233 16.6657 18.1833 16.6663 18.4652C16.6669 18.7472 16.5164 19.0078 16.2719 19.1482C16.0274 19.2887 15.7265 19.2874 15.4832 19.1447L14.1224 18.359C13.9418 18.2549 13.8099 18.0834 13.7558 17.8821C13.7019 17.6808 13.73 17.4663 13.834 17.2857ZM12.5715 22C12.5715 21.5661 12.9232 21.2143 13.3572 21.2143H14.9286C15.3625 21.2143 15.7144 21.566 15.7144 22C15.7144 22.434 15.3626 22.7857 14.9286 22.7857H13.3572C12.9232 22.7857 12.5715 22.4339 12.5715 22ZM13.834 26.7143C13.7299 26.5337 13.7018 26.3192 13.7559 26.1179C13.81 25.9166 13.9418 25.745 14.1225 25.641L15.4833 24.8553C15.7265 24.7127 16.0275 24.7113 16.272 24.8517C16.5165 24.9922 16.667 25.2528 16.6664 25.5348C16.6658 25.8167 16.5141 26.0767 16.269 26.2161L14.9082 27.0018C14.7276 27.1062 14.513 27.1346 14.3115 27.0807C14.11 27.0268 13.9383 26.895 13.834 26.7143Z" fill="white" fill-opacity="0.15"/>
<path d="M30.1267 12.4252L29.2129 7.85706H14.7872L13.8734 12.4252C18.5544 8.42949 25.4456 8.42949 30.1267 12.4252Z" fill="white" fill-opacity="0.15"/>
<path d="M13.8733 31.5747L14.7871 36.1429H29.2128L30.1266 31.5747C25.4455 35.5705 18.5544 35.5705 13.8733 31.5747Z" fill="white" fill-opacity="0.15"/>
<path d="M17.1443 40.0714H18.8571C19.291 40.0714 19.6429 40.4232 19.6429 40.8572C19.6429 41.2912 19.2911 41.6429 18.8571 41.6429H17.4586L17.93 44H26.07L26.5415 41.6428H22C21.5661 41.6428 21.2143 41.2911 21.2143 40.8571C21.2143 40.4231 21.566 40.0714 22 40.0714H26.8558L27.3272 37.7142H16.6729L17.1443 40.0714Z" fill="white" fill-opacity="0.15"/>
</svg>
